<?xml version="1.0" encoding="UTF-8"?>
<svg xmlns="http://www.w3.org/2000/svg" viewBox="0 0 128 128">
	<g>
		<path
			d="M80.879,52.308a22.068,22.068,0,0,0,14.913-5.785,1.793,1.793,0,0,0,.167-.159,22.14,22.14,0,1,0-15.08,5.944ZM68.857,44.4a7.026,7.026,0,0,1,7.008-6.726H85.893A7.027,7.027,0,0,1,92.9,44.4a18.582,18.582,0,0,1-24.044,0ZM80.879,11.5A18.62,18.62,0,0,1,95.83,41.262a10.533,10.533,0,0,0-9.937-7.093H75.865a10.535,10.535,0,0,0-9.938,7.093A18.621,18.621,0,0,1,80.879,11.5Z"
		/>
		<path
			d="M80.879,31.2a6.929,6.929,0,0,0,6.92-6.92V22.244a6.92,6.92,0,1,0-13.84,0v2.037A6.928,6.928,0,0,0,80.879,31.2Zm-3.42-8.957a3.42,3.42,0,1,1,6.84,0v2.037a3.42,3.42,0,1,1-6.84,0Z"
		/>
		<path
			d="M113.5,0h-99a1.75,1.75,0,0,0-1.75,1.75v124.5A1.75,1.75,0,0,0,14.5,128h99a1.75,1.75,0,0,0,1.75-1.75V1.747A1.75,1.75,0,0,0,113.5,0ZM16.25,3.5H46.508v121H16.25Zm95.5,121H50.008V3.5H111.75Z"
		/>
		<path
			d="M36.258,108.5H26.5a5.75,5.75,0,0,0,0,11.5h9.758a5.75,5.75,0,0,0,0-11.5Zm0,8H26.5a2.25,2.25,0,0,1,0-4.5h9.758a2.25,2.25,0,0,1,0,4.5Z"
		/>
		<path
			d="M36.258,90.808H26.5a5.75,5.75,0,0,0,0,11.5h9.758a5.75,5.75,0,0,0,0-11.5Zm0,8H26.5a2.25,2.25,0,0,1,0-4.5h9.758a2.25,2.25,0,0,1,0,4.5Z"
		/>
		<path
			d="M36.258,73.119H26.5a5.75,5.75,0,0,0,0,11.5h9.758a5.75,5.75,0,1,0,0-11.5Zm0,8H26.5a2.25,2.25,0,0,1,0-4.5h9.758a2.25,2.25,0,1,1,0,4.5Z"
		/>
		<path
			d="M56.258,61H105.5a1.75,1.75,0,0,0,0-3.5H56.258a1.75,1.75,0,0,0,0,3.5Z"
		/>
		<path
			d="M56.258,70.25H105.5a1.75,1.75,0,0,0,0-3.5H56.258a1.75,1.75,0,0,0,0,3.5Z"
		/>
		<path
			d="M56.258,79.5H105.5a1.75,1.75,0,0,0,0-3.5H56.258a1.75,1.75,0,0,0,0,3.5Z"
		/>
		<path
			d="M105.5,107.373H70.437a1.75,1.75,0,0,0,0,3.5H105.5a1.75,1.75,0,0,0,0-3.5Z"
		/>
		<path
			d="M105.5,116.5H77.094a1.75,1.75,0,0,0,0,3.5H105.5a1.75,1.75,0,0,0,0-3.5Z"
		/>
		<path
			d="M92.937,88.75a1.75,1.75,0,1,0,0-3.5H68.82a1.75,1.75,0,0,0,0,3.5Z"
		/>
		<path
			d="M40.258,8H22.5a1.75,1.75,0,0,0,0,3.5H40.258a1.75,1.75,0,0,0,0-3.5Z"
		/>
		<path
			d="M40.258,16.438H22.5a1.75,1.75,0,0,0,0,3.5H40.258a1.75,1.75,0,0,0,0-3.5Z"
		/>
		<path
			d="M40.258,24.878H22.5a1.75,1.75,0,0,0,0,3.5H40.258a1.75,1.75,0,0,0,0-3.5Z"
		/>
		<path
			d="M40.258,33.318H22.5a1.75,1.75,0,0,0,0,3.5H40.258a1.75,1.75,0,0,0,0-3.5Z"
		/>
	</g>
</svg>
