<?xml version="1.0" encoding="UTF-8"?>
<!-- Creator: CorelDRAW X8 -->
<svg xmlns="http://www.w3.org/2000/svg" xml:space="preserve" version="1.1" style="shape-rendering:geometricPrecision; text-rendering:geometricPrecision; image-rendering:optimizeQuality; fill-rule:evenodd; clip-rule:evenodd"
viewBox="0 0 3357 3252"
 xmlns:xlink="http://www.w3.org/1999/xlink">
 
 <g id="Layer_x0020_1">
  <metadata id="CorelCorpID_0Corel-Layer"/>
  <path class="primary" d="M2787 474l-432 -432c-27,-27 -63,-42 -101,-42l-1817 0c-79,0 -144,64 -144,143l0 1421 -101 0c-106,0 -192,86 -192,193l0 879c0,106 86,193 192,193l1516 0c79,0 143,-65 143,-144l0 -684c0,-79 -64,-144 -143,-144l-1516 0c-55,0 -101,-45 -101,-100 0,-56 46,-101 101,-101l101 0 0 52c0,25 21,45 46,45 25,0 46,-20 46,-45l0 -1565c0,-28 23,-52 52,-52l1763 0 0 444c0,52 42,94 94,94l443 0 0 1246c6,0 11,1 16,1 -28,-3 -57,-5 -87,-5 -381,0 -691,309 -691,690 0,182 70,346 184,470l-1722 0c-29,0 -52,-24 -52,-52 0,-26 -21,-46 -46,-46 -25,0 -46,20 -46,46 0,79 65,143 144,143l1826 0c113,82 252,130 403,130 381,0 691,-309 691,-691 0,-325 -225,-598 -528,-671l0 -1315c0,-38 -15,-74 -42,-101l0 0zm-32 1403c5,0 10,1 15,2 -5,-1 -10,-2 -15,-2zm18 2c4,1 8,2 12,2 -4,0 -8,-1 -12,-2zm19 3c3,1 6,1 8,2 -2,-1 -5,-1 -8,-2zm-126 72c335,0 607,272 607,607 0,336 -272,608 -607,608 -335,0 -607,-272 -607,-608 0,-335 272,-607 607,-607zm-2474 -5l1516 0c28,0 52,23 52,52l0 684c0,29 -24,52 -52,52l-1516 0c-55,0 -101,-45 -101,-101l0 -716c30,18 64,29 101,29zm2099 -1414l0 -428 430 431 -427 0c-2,0 -3,-2 -3,-3z"/>
  <path class="secondary" d="M1292 1326c-112,36 -228,85 -289,148 -51,53 -60,113 -25,167 23,36 56,55 92,55 14,0 29,-2 43,-8 54,-21 112,-79 178,-179 21,-32 42,-68 64,-107 8,-2 16,-4 24,-6 129,-36 275,-63 403,-74 78,76 159,135 228,151 75,17 135,-17 160,-93 15,-46 -2,-89 -46,-115 -45,-28 -124,-41 -234,-40 -23,1 -48,2 -73,3 -50,-51 -101,-111 -150,-179 -39,-52 -73,-104 -102,-153 3,-11 6,-22 9,-32 31,-116 43,-205 33,-264 -13,-85 -68,-97 -91,-99 -79,-4 -132,36 -142,106 -8,56 11,134 56,230 11,23 23,46 36,70 -5,16 -10,33 -16,50 -42,124 -99,257 -158,369l0 0zm1239 1283c-21,11 -58,2 -86,5 -40,6 -76,56 -25,107l185 185c13,13 29,33 58,34 31,2 47,-17 60,-30l138 -138c36,-35 81,-67 76,-109 -3,-24 -22,-42 -44,-48 -27,-6 -64,3 -90,-4 -11,-23 -5,-231 -5,-276 0,-38 8,-101 -13,-127 -26,-33 -70,-25 -116,-25 -45,0 -97,-7 -120,22 -23,28 -15,84 -15,125 0,40 3,259 -3,279zm-55 71c-1,19 15,28 36,49l127 127c31,31 20,34 89,-35l126 -126c16,-31 -39,-21 -58,-24 -67,-8 -56,-79 -56,-115 0,-84 3,-212 0,-294 0,-17 -4,-20 -22,-20 -143,0 -126,-10 -126,49l0 218c0,36 6,108 -9,133 -30,50 -77,13 -107,38zm-1180 -97c25,0 46,-21 46,-46l0 -152 99 0c25,0 45,-20 45,-46 0,-25 -20,-45 -45,-45l-99 0 0 -99 111 0c25,0 46,-21 46,-46 0,-25 -21,-46 -46,-46l-157 0c-25,0 -46,21 -46,46l0 388c0,25 21,46 46,46zm-861 1c26,0 46,-20 46,-45l0 -125c23,0 49,0 63,0 87,0 158,-70 158,-156 0,-86 -71,-156 -158,-156l-109 0c-12,0 -23,5 -32,13 -9,9 -13,20 -13,33l0 0 0 391c0,25 20,45 45,45zm109 -391c36,0 67,30 67,65 0,35 -31,65 -67,65 -14,0 -40,0 -62,0 -1,-24 -1,-105 -1,-130l63 0 0 0zm271 372c9,9 20,14 32,14l1 0c3,0 79,-1 110,-1 113,-2 195,-101 195,-235 0,-141 -80,-235 -199,-235l-107 0c-12,0 -24,4 -33,13 -8,9 -13,20 -13,32l0 1 0 0 0 373c0,3 0,6 1,9 1,11 5,21 13,29l0 0zm139 -366c79,0 108,74 108,144 0,98 -53,142 -106,143 -14,1 -40,1 -63,1 0,-45 0,-241 -1,-288l62 0zm118 -594c-3,0 -8,1 -18,-14 -7,-12 -8,-20 -1,-33 15,-28 67,-68 168,-109 -70,109 -123,152 -149,156l0 0zm1012 -256c0,0 0,1 -1,3 -11,35 -27,38 -53,32 -31,-8 -72,-31 -117,-67 122,1 165,23 171,32l0 0zm-619 -729c2,-13 4,-27 38,-27 3,0 5,0 7,0 11,12 16,69 -8,181 -28,-66 -42,-120 -37,-154zm63 391c20,30 42,62 65,93 33,44 70,91 109,135 -45,5 -92,12 -139,21 -32,6 -87,16 -152,33 15,-30 29,-61 43,-93 27,-63 53,-127 74,-189z"/>
 </g>
</svg>
