<?xml version="1.0" encoding="UTF-8"?>
<!-- Creator: CorelDRAW X8 -->
<svg xmlns="http://www.w3.org/2000/svg" xml:space="preserve" x="0px" y="0px" version="1.1" style="shape-rendering:geometricPrecision; text-rendering:geometricPrecision; image-rendering:optimizeQuality; fill-rule:evenodd; clip-rule:evenodd"
viewBox="0 0 938 938"
 xmlns:xlink="http://www.w3.org/1999/xlink">
<g id="Layer_x0020_1">
  <metadata id="CorelCorpID_0Corel-Layer"/>
  <path class="fil0" d="M353 665l0 -127c1,-9 2,-12 2,-23 0,-17 0,-35 0,-52l4 -98c2,-12 13,-24 22,-29 30,-15 157,-16 188,0 27,13 22,40 24,51l2 439c0,12 -2,18 -2,27l0 44c0,8 -1,6 -1,13l-233 0c0,-8 -2,-9 -2,-29 0,-47 -4,-106 -4,-152 0,-21 0,-43 0,-64zm271 -150c11,-3 14,-9 43,-10 9,0 12,-1 23,-1 9,0 20,0 28,0l48 0c7,0 3,1 10,1 25,2 53,3 63,29 6,16 7,129 7,153l0 139c0,8 -2,7 -2,16 0,25 1,26 -1,50 -1,5 -1,13 -1,18l-221 0c0,-24 2,-44 2,-69 0,-14 2,-20 1,-33l2 -178c0,-40 -2,-75 -2,-115zm-298 -10c-6,10 -23,24 -34,29 -28,15 -64,18 -94,4 -25,-11 -44,-29 -56,-54 -19,-39 -9,-90 19,-118 8,-9 17,-16 29,-22 35,-18 74,-18 108,3 9,5 30,24 32,30 0,43 -4,86 -4,128zm262 -192c-21,-11 -41,-12 -64,-15l-36 -2c-16,-3 -93,4 -108,9 -14,6 -25,13 -34,24 -4,5 -4,8 -9,12 -30,-20 -45,-39 -97,-39 -36,0 -69,13 -93,37 -3,3 -5,5 -8,8 -11,13 -19,27 -25,41 -2,4 -3,8 -5,12 -24,81 37,175 124,175 30,0 52,-4 77,-18l16 -11c0,26 -2,47 -2,71 -8,0 -6,-1 -14,-2 -43,-1 -128,-6 -164,4 -10,3 -17,8 -26,14 -17,12 -27,33 -27,56l-1 60c-1,8 -2,9 -2,18 0,20 -7,63 14,63 15,0 15,-17 15,-28l4 -124c6,-26 27,-32 51,-33 18,-2 67,-6 81,-3 14,3 28,-1 42,1 22,3 27,-4 27,14l4 169c0,14 0,28 0,42l2 42 -209 0 -2 -47c-4,-3 -7,-8 -13,-8 -23,0 -13,41 -13,55l-86 0c-5,8 -7,8 -7,17 0,4 5,7 7,11l923 0c5,-8 8,-8 8,-17 0,-4 -5,-7 -8,-11l-58 0c0,-31 2,-56 2,-88 0,-17 1,-26 1,-42l-1 -143c0,-33 -2,-66 -4,-97 -2,-25 -22,-46 -43,-55 -30,-13 -172,-16 -203,-2l-1 -64c0,-10 -2,-12 -2,-20 7,5 11,12 18,17 33,24 55,29 97,29 17,0 37,-7 49,-13 41,-21 76,-64 76,-113 0,-33 -5,-66 -27,-92 -3,-4 -6,-9 -9,-11 -16,-11 -28,9 -20,21 16,21 28,42 28,71 0,98 -119,143 -182,81 -39,-40 -46,-98 -14,-144 3,-3 4,-3 6,-7 27,-34 79,-45 120,-30 6,2 8,3 15,0 10,-6 9,-19 0,-25 -14,-9 -38,-11 -56,-11 -32,0 -75,18 -96,42 -26,28 -38,59 -38,99z"/>
  <path class="fil0" d="M487 244c-33,0 -59,-6 -85,-31 -14,-15 -30,-44 -30,-66 0,-30 -1,-32 10,-59 6,-13 13,-21 22,-30l14 -11c3,-3 5,-3 8,-5 37,-24 95,-17 128,17 18,17 24,29 30,53 17,67 -38,132 -97,132zm-66 -107c28,0 28,-58 0,-58 -5,0 -9,6 -11,10 -11,22 1,48 11,48zm95 -33c0,9 1,17 5,24 12,22 32,3 32,-20 0,-37 -37,-39 -37,-4zm-109 61c1,8 5,14 9,20l15 16c31,27 82,23 110,-14 1,-2 10,-16 10,-19 0,-9 -4,-16 -14,-16 -19,0 -9,20 -37,33 -26,12 -53,0 -64,-22 -3,-6 -6,-11 -15,-11 -10,0 -11,6 -14,13zm59 -165l24 0c32,3 63,17 85,40 7,6 10,10 16,17l12 20c17,37 18,85 -2,121 -17,31 -35,48 -66,63 -33,16 -80,16 -114,-1 -13,-7 -28,-16 -39,-27 -25,-25 -40,-57 -40,-101 0,-62 47,-114 103,-128 7,-2 14,-3 21,-4z"/>
  <path class="fil0" d="M176 485l0 8c17,11 16,10 29,-4 7,-9 23,-16 35,-16 33,0 39,27 51,27 16,0 26,-20 -7,-42 -28,-18 -57,-17 -85,-1 -8,5 -23,18 -23,28z"/>
  <path class="fil0" d="M657 344c0,8 9,15 17,15l101 0c22,0 21,-29 1,-29l-102 0c-8,0 -17,7 -17,14z"/>
  <path class="fil0" d="M762 278c0,45 36,40 36,4 0,-43 -36,-37 -36,-4z"/>
  <path class="fil0" d="M167 410c0,8 1,15 4,20 4,8 7,7 14,11 12,-6 18,-9 18,-33 0,-34 -36,-37 -36,2z"/>
  <path class="fil0" d="M668 311c25,0 25,-60 2,-60 -17,0 -24,31 -15,48 2,4 10,12 13,12z"/>
  <path class="fil0" d="M278 407c0,23 2,26 19,34 30,-16 16,-60 0,-60 -12,0 -19,14 -19,26z"/>
 </g>
</svg>
