<?xml version="1.0" encoding="UTF-8"?>
<!-- Creator: CorelDRAW X8 -->
<svg xmlns="http://www.w3.org/2000/svg" xml:space="preserve" x="0px" y="0px" version="1.1" style="shape-rendering:geometricPrecision; text-rendering:geometricPrecision; image-rendering:optimizeQuality; fill-rule:evenodd; clip-rule:evenodd"
viewBox="0 0 2015 1713"
 xmlns:xlink="http://www.w3.org/1999/xlink">
 <g id="live_preview">
  <metadata id="CorelCorpID_0Corel-Layer"/>
  <g id="_2450108581648">
   <path class="fil0" d="M2005 836c-15,-20 -333,-524 -998,-524 0,0 0,0 0,0 0,0 0,0 0,0 0,0 0,0 0,0 -664,0 -982,499 -997,524l-10 20 10 20c5,5 292,524 997,524 0,0 0,0 0,0 0,0 0,0 0,0 0,0 0,0 0,0 706,0 993,-519 998,-524l10 -20 -10 -20zm-529 20c0,257 -212,469 -469,469 0,0 0,0 -5,0 -257,0 -468,-212 -468,-469 0,-257 211,-468 468,-468 0,0 0,0 5,0 262,0 469,211 469,468zm-1390 0c50,-65 236,-307 574,-418 -121,101 -197,247 -197,413 0,171 81,323 202,423 -353,-100 -534,-347 -579,-418zm1259 423c126,-100 201,-251 201,-423 0,-166 -75,-312 -191,-413 337,111 529,348 574,413 -45,71 -227,318 -584,423z"/>
   <path class="fil0" d="M831 856c0,96 81,177 176,177 96,0 177,-81 177,-177 0,-95 -81,-176 -177,-176 -95,0 -176,81 -176,176zm282 0c0,56 -45,106 -106,106 -55,0 -105,-45 -105,-106 0,-55 45,-106 105,-106 56,0 106,51 106,106z"/>
   <path class="fil0" d="M1007 227c21,0 36,-15 36,-36l0 -156c0,-20 -15,-35 -36,-35 -20,0 -35,15 -35,35l0 156c0,21 15,36 35,36z"/>
   <path class="fil0" d="M1007 1486c-20,0 -35,15 -35,35l0 156c0,20 15,36 35,36 21,0 36,-16 36,-36l0 -156c0,-20 -15,-35 -36,-35z"/>
   <path class="fil0" d="M403 302c5,5 15,10 25,10 10,0 20,-5 25,-10 15,-15 15,-35 0,-50l-110 -111c-16,-15 -36,-15 -51,0 -15,15 -15,35 0,50l111 111z"/>
   <path class="fil0" d="M1612 1410c-15,-15 -35,-15 -51,0 -15,15 -15,36 0,51l111 111c5,5 15,10 25,10 10,0 21,-5 26,-10 15,-16 15,-36 0,-51l-111 -111z"/>
   <path class="fil0" d="M1587 312c10,0 20,-5 25,-10l111 -111c15,-15 15,-35 0,-50 -16,-15 -36,-15 -51,0l-111 111c-15,15 -15,35 0,50 5,10 16,10 26,10z"/>
   <path class="fil0" d="M403 1410l-111 111c-15,15 -15,35 0,51 5,5 15,10 25,10 10,0 20,-5 26,-10l110 -111c15,-15 15,-36 0,-51 -10,-15 -35,-15 -50,0z"/>
  </g>
 </g>
</svg>
