<?xml version="1.0" encoding="UTF-8"?>
<svg xmlns="http://www.w3.org/2000/svg" xml:space="preserve" x="0px" y="0px" version="1.1" style="shape-rendering:geometricPrecision; text-rendering:geometricPrecision; image-rendering:optimizeQuality; fill-rule:evenodd; clip-rule:evenodd"
viewBox="0 0 1681 1423"
 xmlns:xlink="http://www.w3.org/1999/xlink">
 
 <g id="Layer_x0020_1">
    <path class="fil0" d="M455 1337c-272,0 -455,-269 -455,-670 0,-402 183,-667 455,-667 273,0 455,269 455,670 0,402 -182,667 -455,667zm0 -1283c-240,0 -401,247 -401,613 0,365 161,613 401,613 240,0 402,-248 402,-613 0,-366 -162,-613 -402,-613zm0 1079c-129,0 -215,-187 -215,-463 0,-276 86,-462 215,-462 129,0 215,186 215,462 0,276 -86,463 -215,463zm0 -871c-93,0 -161,172 -161,408 0,237 68,409 161,409 93,0 161,-172 161,-409 0,-236 -68,-408 -161,-408z"/>
    <path class="fil1" d="M1660 836l-109 0c-6,-60 -38,-116 -85,-150l194 0c12,0 21,-10 21,-21 0,-12 -9,-22 -21,-22l-452 0c-12,0 -21,10 -21,22 0,11 9,21 21,21l129 0c88,0 161,66 171,150l-300 0c-12,0 -21,9 -21,21 0,12 9,21 21,21l300 0c-10,87 -84,152 -171,152l-129 0c-12,0 -21,10 -21,22 0,6 2,11 6,15l323 306c9,8 22,7 31,-1 8,-9 7,-22 -1,-31l-284 -268 75 0c112,0 204,-86 214,-195l109 0c12,0 21,-9 21,-21 0,-12 -9,-21 -21,-21z"/>
 </g>
</svg>
