<?xml version="1.0" encoding="UTF-8"?>
<svg xmlns="http://www.w3.org/2000/svg" xml:space="preserve" x="0px" y="0px" version="1.1" style="shape-rendering:geometricPrecision; text-rendering:geometricPrecision; image-rendering:optimizeQuality; fill-rule:evenodd; clip-rule:evenodd"
viewBox="0 0 235 307"
 xmlns:xlink="http://www.w3.org/1999/xlink">
 
 <g id="Layer_x0020_1">
   <path class="fil0" d="M220 36c-48,-2 -78,-21 -91,-32 -6,-5 -16,-5 -22,0 -13,11 -42,30 -90,32 -9,1 -17,9 -17,18l0 87c0,55 24,105 64,137 16,13 35,22 52,28l2 1 1 -1c17,-6 33,-13 50,-26 41,-32 66,-83 66,-137l0 -89c2,-9 -6,-17 -15,-18zm7 15l0 91c0,51 -23,99 -63,130 -15,11 -29,18 -44,23 -17,-5 -33,-13 -48,-26 -39,-30 -60,-78 -60,-130l0 -88c0,-3 2,-5 5,-5 52,-3 84,-24 99,-36 1,-1 2,-2 4,-2 1,0 2,1 4,2 14,12 46,33 99,36 1,0 4,2 4,5z"/>
  <path class="fil1" d="M106 179c-4,-1 -25,-20 -32,-25 -1,-1 -4,-3 -7,-2 -2,0 -4,3 -2,6 1,3 41,34 42,35 12,-14 57,-65 64,-73 1,-4 -4,-9 -9,-4 -18,21 -37,43 -56,63z"/>
 </g>
</svg>
