<?xml version="1.0" encoding="UTF-8"?>
<svg xmlns="http://www.w3.org/2000/svg" xml:space="preserve" x="0px" y="0px" version="1.1" style="shape-rendering:geometricPrecision; text-rendering:geometricPrecision; image-rendering:optimizeQuality; fill-rule:evenodd; clip-rule:evenodd"
viewBox="0 0 264 219"
 xmlns:xlink="http://www.w3.org/1999/xlink">
 
 <g id="Layer_x0020_1">
   <path class="fil0" d="M224 71c-3,-39 -35,-71 -74,-71 -24,0 -47,12 -62,31 0,-1 -9,-5 -18,-5 -21,0 -39,18 -39,40 0,1 0,1 0,2 -18,10 -31,31 -31,51 0,31 25,57 57,57l22 0c3,0 5,-2 5,-5 0,-2 -2,-4 -5,-4l-22 0c-27,0 -48,-21 -48,-48 0,-18 12,-37 29,-45l2 -1c0,-53 62,-44 62,-7 0,3 2,4 5,4 2,0 4,-1 4,-4 0,-12 -5,-23 -13,-30 12,-17 33,-27 54,-27 34,0 62,27 65,61 -5,0 -11,-1 -18,0 -3,1 -4,3 -4,6 0,2 2,4 5,4 0,0 0,0 0,0 10,-2 20,0 21,0 20,4 35,22 35,44 0,24 -19,44 -44,44l-17 0c-3,0 -5,2 -5,5 0,2 2,4 5,4l16 0c29,0 53,-23 53,-52 0,-26 -18,-48 -40,-54z"/>
  <path class="fil0" d="M180 167c-3,0 -5,2 -5,4 0,22 -18,40 -39,40 -22,0 -40,-18 -40,-40 0,-21 18,-39 40,-39 13,0 25,6 32,18l-28 0c-2,0 -4,2 -4,4 0,3 2,4 4,4 50,0 40,10 40,-39 0,-3 -2,-5 -5,-5 -2,0 -4,2 -4,5l0 20c-9,-10 -21,-16 -35,-16 -27,0 -48,22 -48,48 0,27 21,48 48,48 26,0 48,-21 48,-48 0,-2 -2,-4 -4,-4z"/>
 </g>
</svg>
