<?xml version="1.0" encoding="UTF-8"?>
<!-- Creator: CorelDRAW X8 -->
<svg xmlns="http://www.w3.org/2000/svg" xml:space="preserve" x="0px" y="0px" version="1.1" style="shape-rendering:geometricPrecision; text-rendering:geometricPrecision; image-rendering:optimizeQuality; fill-rule:evenodd; clip-rule:evenodd"
viewBox="0 0 202 247"
 xmlns:xlink="http://www.w3.org/1999/xlink">
<g id="Layer_x0020_1">
  <metadata id="CorelCorpID_0Corel-Layer"/>
  <path class="fil0" d="M185 16l13 0c2,0 4,2 4,4l0 223c0,2 -2,4 -4,4l-177 0c-2,0 -4,-2 -4,-4l0 -12 5 0 0 12 175 0 0 -222 -12 0 0 -5z"/>
  <path class="fil0" d="M4 0l177 0c2,0 4,2 4,4l0 223c0,2 -2,4 -4,4l-177 0c-2,0 -4,-2 -4,-4l0 -223c0,-2 2,-4 4,-4zm1 5l175 0 0 222 -175 0 0 -222z"/>
  <path class="fil0" d="M17 33l64 0c3,0 5,2 5,4l0 176c0,3 -2,5 -5,5l-64 0c-2,0 -4,-2 -4,-5l0 -176c0,-2 2,-4 4,-4zm1 5l62 0 0 175 -62 0 0 -175z"/>
  <path class="fil0" d="M102 33l65 0c2,0 4,2 4,4l0 40c0,2 -2,4 -4,4l-65 0c-2,0 -4,-2 -4,-4l0 -40c0,-2 2,-4 4,-4zm1 5l62 0 0 39 -62 0 0 -39z"/>
  <path class="fil0" d="M102 94l65 0c2,0 4,1 4,4l0 115c0,3 -2,5 -4,5l-65 0c-2,0 -4,-2 -4,-5l0 -115c0,-3 2,-4 4,-4zm1 4l62 0 0 115 -62 0 0 -115z"/>
  <rect class="fil0" x="16" y="18" width="66.8737" height="4.54516" rx="2" ry="2"/>
 </g>
</svg>
