<?xml version="1.0" encoding="UTF-8"?>
<!-- Creator: CorelDRAW X8 -->
<svg xmlns="http://www.w3.org/2000/svg" xml:space="preserve" x="0px" y="0px" version="1.1" style="shape-rendering:geometricPrecision; text-rendering:geometricPrecision; image-rendering:optimizeQuality; fill-rule:evenodd; clip-rule:evenodd"
viewBox="0 0 402 396"
 xmlns:xlink="http://www.w3.org/1999/xlink">
 
 <g id="Layer_x0020_1">
  <metadata id="CorelCorpID_0Corel-Layer"/>
  <path class="fil1" d="M171 171c-7,33 -46,48 -72,29 -27,-19 -27,-58 1,-77 16,-11 40,-10 55,3 3,2 4,5 9,6 9,1 14,-10 8,-17 -21,-21 -59,-26 -86,-6 -22,16 -36,50 -19,84 22,42 85,48 113,5 5,-8 18,-37 6,-44 -3,-3 -22,-2 -28,-2 -7,0 -22,-2 -26,3 -6,7 -1,16 9,16 10,1 20,0 30,0z"/>
  <path class="fil2" d="M368 69l-157 0 -20 -64c-1,-3 -4,-5 -7,-5l-151 0c-18,0 -33,15 -33,33l0 261c0,18 15,33 33,33l160 0 21 64c1,3 4,5 7,5l148 0c18,0 33,-15 33,-33l0 -261c-1,-19 -16,-33 -34,-33zm-335 241c-9,0 -17,-8 -17,-17l0 -261c0,-9 8,-17 17,-17l145 0 55 168c0,0 0,0 0,0l42 127 -242 0zm232 -91c1,1 8,12 21,27 -3,4 -7,9 -11,13l-23 -70 68 0c-5,10 -13,26 -25,44 -11,-13 -17,-22 -17,-23 -3,-4 -7,-4 -11,-2 -4,3 -5,7 -2,11zm-56 107l59 0 -43 46 -16 -46zm176 36c0,9 -8,17 -17,17l-129 0 52 -56 0 0c0,0 0,0 1,-1 1,-2 2,-5 1,-7l-13 -39c6,-6 11,-12 15,-18 10,12 23,26 36,39 2,2 4,2 6,2 2,0 4,-1 6,-2 3,-3 3,-8 0,-11 -14,-14 -27,-28 -37,-41 17,-24 27,-46 32,-56l17 0c4,0 8,-4 8,-8 0,-4 -4,-8 -8,-8l-24 0c0,0 0,0 0,0l-30 0 0 -15c0,-4 -4,-8 -8,-8 -4,0 -8,4 -8,8l0 15 -40 0 -29 -89 152 0c9,0 17,8 17,17l0 261 0 0z"/>
 </g>
</svg>
