<?xml version="1.0" encoding="UTF-8"?>
<!-- Creator: CorelDRAW X8 -->
<svg xmlns="http://www.w3.org/2000/svg" xml:space="preserve" version="1.1" style="shape-rendering:geometricPrecision; text-rendering:geometricPrecision; image-rendering:optimizeQuality; fill-rule:evenodd; clip-rule:evenodd"
viewBox="0 0 23640 28588"
 xmlns:xlink="http://www.w3.org/1999/xlink">
 <g id="Layer_x0020_1">
  <metadata id="CorelCorpID_0Corel-Layer"/>
  <path class="primary" d="M17199 11299l-6012 -6291c-90,-90 -180,-181 -369,-181 -2993,0 -5979,0 -8973,0 -1017,0 -1845,829 -1845,1846 0,6693 0,13377 0,20070 0,1017 828,1845 1845,1845l13599 0c227,0 445,-41 646,-116 -46,-100 180,-274 180,-575 -67,-6 -340,-16 -415,-29 -133,72 -273,115 -411,115l-13689 0c-459,0 -1076,-592 -1076,-1150 0,-6684 0,-13377 0,-20062 0,-467 518,-1150 1076,-1150 2715,0 5653,0 8360,0l0 5988c0,279 189,468 467,468l6004 0 0 3128c119,-34 248,-41 416,-41 94,0 192,21 288,58l0 -3644c0,0 0,-189 -91,-279zm-6439 -5622l5590 5696 -5516 0 -74 -5696z"/>
  <path class="primary" d="M584 0l16122 0c303,0 552,249 552,552l0 2374c0,304 -249,552 -552,552l-16122 0c-303,0 -552,-248 -552,-552l0 -2374c0,-304 248,-552 552,-552zm175 436l15771 0c158,0 286,129 286,286l0 2035c0,157 -129,285 -286,285l-15771 0c-157,0 -285,-128 -285,-285l0 -2035c0,-157 128,-286 285,-286z"/>
  <rect class="secondary" x="1266" y="1163" width="4369" height="1153"/>
  <rect class="primary" x="6461" y="1163" width="4369" height="1153"/>
  <rect class="secondary" x="11655" y="1163" width="4369" height="1153"/>
  <path class="secondary" d="M16496 27311l851 0 0 852 -851 0 0 -852zm1064 1277l-1235 0c-330,-34 -255,-178 -255,-691 -324,-27 -779,-153 -1061,-243 -1217,-387 -2229,-1166 -2987,-2175l-494 -784c-141,-284 -287,-602 -384,-920 -69,-225 -230,-779 -236,-1041 -355,0 -692,71 -692,-213 0,-1693 -165,-1490 692,-1490 21,-251 119,-655 189,-875 188,-588 219,-629 467,-1130 65,-131 126,-224 194,-338 1061,-1784 2751,-2339 2875,-2447l-1570 0c-62,117 -105,218 -211,294 -478,341 -1039,-24 -1039,-453 0,-799 901,-883 1185,-388 39,68 39,121 118,121l2768 0c4,-174 114,-352 218,-473 10,-11 43,-48 50,-56 4,-4 10,-10 14,-14 3,-4 9,-9 13,-13 6,-5 22,-20 28,-25 263,-237 445,-270 795,-270 431,0 948,446 958,851l2767 0c119,0 79,-153 249,-282 445,-339 1055,-39 1055,442 0,706 -668,843 -1055,549 -99,-76 -139,-176 -196,-283l-1570 0c21,18 13,13 47,33 518,288 532,171 1303,746 653,488 1350,1260 1719,2006 305,615 598,1301 657,2005 299,0 692,-79 692,213 0,1681 163,1490 -692,1490 -6,257 -170,833 -243,1062 -154,485 -362,889 -624,1318 -287,467 -621,873 -1029,1233 -62,54 -97,104 -161,158l-739 539c-596,359 -1697,838 -2367,853 0,354 71,691 -213,691zm4790 -7131l852 0 0 851 -852 0 0 -851zm-11708 0l851 0 0 851 -851 0 0 -851zm5269 -5109c24,298 488,745 931,745 298,0 525,-30 752,-233 122,-110 323,-315 339,-512 220,5 726,170 908,236 541,194 1025,470 1479,809 992,740 1813,1947 2072,3144 33,149 88,345 91,494 -695,0 -559,-145 -559,1490 0,270 293,213 559,213 -6,260 -147,723 -223,948 -191,575 -440,1069 -795,1546 -685,922 -1624,1622 -2724,1987 -232,77 -700,223 -968,229 0,-695 145,-559 -1490,-559 -270,0 -213,292 -213,559 -705,-16 -1888,-567 -2494,-1018 -424,-316 -869,-760 -1186,-1183 -459,-612 -1014,-1806 -1030,-2509 696,0 559,145 559,-1490 0,-270 -292,-213 -559,-213 11,-467 353,-1316 559,-1730 122,-246 271,-494 433,-711l392 -486c394,-515 1234,-1055 1827,-1340 285,-137 1048,-410 1340,-416zm5268 -320c0,-269 426,-269 426,0 0,269 -426,269 -426,0zm-4896 0c0,-441 524,-839 997,-517 342,233 340,713 88,964 -251,251 -731,254 -964,-89 -52,-76 -121,-247 -121,-358zm-4045 0c0,-269 426,-269 426,0 0,269 -426,269 -426,0z"/>
  <path class="primary" d="M15591 24331l2661 0c33,138 91,284 137,422 34,104 120,315 129,429l-3193 0c13,-153 215,-631 266,-851zm870 -2669c245,-253 636,-265 894,-26 254,235 263,636 26,893 -102,111 -264,184 -439,199 -534,47 -870,-663 -481,-1066zm-604 354l0 159c0,491 494,985 985,985l160 0c490,0 984,-494 984,-985l0 -159c0,-432 -446,-949 -851,-958l0 -3114 79 0c10,121 1563,3694 1746,4110 88,199 53,163 -35,368l-646 1483 -2714 0c-32,-137 -95,-248 -152,-380l-576 -1288c-23,-105 473,-1175 526,-1301 365,-872 753,-1736 1118,-2608 42,-101 140,-284 148,-384l80 0 0 3114c-406,9 -852,526 -852,958zm-1490 159c0,188 542,1307 658,1578 199,467 201,275 31,787 -126,378 -477,1068 -50,1068l3832 0c528,0 -129,-1076 -176,-1447 -14,-107 420,-1005 480,-1150 444,-1075 478,-473 -148,-2003l-511 -1192c-270,-605 -633,-1537 -895,-2085 -50,-105 -86,-212 -241,-212l-904 0c-104,0 -154,133 -188,211l-1390 3240c-67,159 -498,1130 -498,1205z"/>
 </g>
</svg>
