<?xml version="1.0" encoding="UTF-8"?>
<!-- Creator: CorelDRAW X8 -->
<svg xmlns="http://www.w3.org/2000/svg" xml:space="preserve"  version="1.1" style="shape-rendering:geometricPrecision; text-rendering:geometricPrecision; image-rendering:optimizeQuality; fill-rule:evenodd; clip-rule:evenodd"
viewBox="0 0 14336 13554"
 xmlns:xlink="http://www.w3.org/1999/xlink">
 <defs>
  
 </defs>
 <g id="Layer_x0020_1">
  <metadata id="CorelCorpID_0Corel-Layer"/>
  <path class="primary" d="M8009 2132c-156,0 -282,127 -282,282 0,156 126,283 282,283 156,0 282,-127 282,-283 0,-155 -126,-282 -282,-282zm3086 2298l-3605 0 299 -733c142,-347 -380,-560 -522,-214l-459 1123c-76,186 61,389 261,389l3536 0 -3864 6643 917 -4470c36,-175 -98,-339 -277,-339l-3763 0 1851 -6265 2992 0 -233 568c-142,348 381,562 523,214l391 -957c76,-186 -60,-389 -261,-389l-3623 0c-127,0 -235,85 -270,201 0,0 -1493,5053 -2018,6831 -54,181 82,362 270,362l3795 0 -1193 5820c-64,313 360,475 521,198l4976 -8557c110,-189 -26,-425 -244,-425l0 0z"/>
  <path class="secondary" d="M2370 3678l-1024 -592c-135,-77 -308,-31 -386,104 -78,135 -31,307 104,385l1024 592c135,78 308,31 386,-104 77,-135 31,-307 -104,-385zm-905 3378l-1183 0c-156,0 -282,-127 -282,-282 0,-156 126,-283 282,-283l1183 0c156,0 282,127 282,283 0,155 -126,282 -282,282l0 0zm623 2325l-1024 591c-135,78 -182,251 -104,385 78,135 251,182 386,104l1024 -592c135,-78 182,-250 104,-385 -78,-135 -251,-181 -386,-103z"/>
  <path class="secondary" d="M13272 9972l-1025 -591c-134,-78 -307,-32 -385,103 -78,135 -32,307 103,385l1025 592c135,78 307,31 385,-104 78,-134 32,-307 -103,-385zm781 -3481l-1183 0c-155,0 -282,127 -282,283 0,155 127,282 282,282l1183 0c156,0 283,-127 283,-282 0,-156 -127,-283 -283,-283l0 0zm-1805 -2324l1024 -592c135,-78 181,-250 103,-385 -78,-135 -250,-181 -385,-104l-1025 592c-135,78 -181,250 -103,385 78,135 251,182 386,104z"/>
 </g>
</svg>
