<?xml version="1.0" encoding="UTF-8"?>
<!-- Creator: CorelDRAW X8 -->
<svg xmlns="http://www.w3.org/2000/svg" xml:space="preserve" version="1.1" style="shape-rendering:geometricPrecision; text-rendering:geometricPrecision; image-rendering:optimizeQuality; fill-rule:evenodd; clip-rule:evenodd"
viewBox="0 0 4504 4033"
 xmlns:xlink="http://www.w3.org/1999/xlink">

 <g id="Layer_x0020_1">
  <metadata id="CorelCorpID_0Corel-Layer"/>
  <path class="secondary" d="M1244 1135l-1019 0c-124,0 -225,102 -225,226 0,815 0,1631 0,2446 0,124 101,226 225,226l1658 0c124,0 225,-102 225,-226l0 -941 -113 0c0,307 1,645 1,952 0,57 -45,113 -113,113l-1669 0c-56,0 -113,-45 -113,-113 0,-815 0,-1631 0,-2446 0,-57 46,-113 113,-113 328,0 687,0 1016,0 3,0 131,-64 14,-124z"/>
  <path class="primary" d="M3310 789l-733 -766c-11,-12 -22,-23 -45,-23 -364,0 -729,0 -1094,0 -124,0 -225,101 -225,225 0,816 0,1632 0,2447 0,124 101,226 225,226l989 0 0 -102 -1000 0c-56,0 -113,-45 -113,-113 0,-815 0,-1631 0,-2446 0,-57 46,-113 113,-113 331,0 662,0 992,0l0 722c0,33 23,56 57,56l732 0 0 253 113 0 0 -332c0,0 0,-23 -11,-34zm-767 -631l609 631 -609 0 0 -631z"/>
  <path class="secondary" d="M4493 1913l-733 -767c-11,-11 -22,-22 -45,-22 -365,0 -729,0 -1094,0 -124,0 -225,101 -225,225 0,816 0,1631 0,2447 0,124 101,225 225,225l1658 0c124,0 225,-101 225,-225l0 -1849c0,0 0,-23 -11,-34zm-767 -631l609 631 -609 0 0 -631zm665 2525c0,56 -45,113 -112,113l-1669 0c-56,0 -113,-45 -113,-113 0,-815 0,-1631 0,-2446 0,-57 45,-113 113,-113 331,0 662,0 992,0l0 721c0,34 23,57 57,57l732 0c0,594 0,1187 0,1781z"/>
 </g>
</svg>
