<?xml version="1.0" encoding="UTF-8"?>
<svg xmlns="http://www.w3.org/2000/svg" xml:space="preserve" x="0px" y="0px" version="1.1" style="shape-rendering:geometricPrecision; text-rendering:geometricPrecision; image-rendering:optimizeQuality; fill-rule:evenodd; clip-rule:evenodd"
viewBox="0 0 248 320"
 xmlns:xlink="http://www.w3.org/1999/xlink">
 
 <g id="Layer_x0020_1">
  <path class="fil0" d="M46 70c-16,3 -25,10 -32,19 -7,8 -13,23 -10,39 4,25 27,46 57,42 25,-3 47,-27 42,-57 -3,-25 -27,-47 -57,-43zm3 9c-12,2 -21,8 -26,15 -25,31 0,70 35,67 21,-2 39,-21 36,-45 -2,-21 -21,-40 -45,-37z"/>
  <path class="fil0" d="M148 104c-6,0 -22,-8 -24,-1 -3,7 10,6 21,10 7,2 6,1 10,-3 8,-9 19,-15 32,-15 -4,9 -10,17 -7,31 2,9 3,5 9,12 8,9 10,10 17,23 1,2 5,13 6,14 4,4 12,-1 17,4 2,3 1,14 1,19 0,6 1,14 -3,17 -5,4 -13,-1 -16,4 -6,15 -14,26 -24,38 -3,4 -6,6 -9,11 -8,10 -8,17 -8,32l-41 1c0,-20 1,-15 -19,-15 -3,0 -15,-1 -17,0 -4,2 -2,10 -2,15l-40 0c-2,-33 -14,-35 -26,-53 -6,-11 -13,-25 -15,-37 -2,-15 0,-16 0,-25 0,-4 -4,-6 -7,-4 -4,3 -3,28 -2,35 2,12 9,26 16,36 12,19 20,20 24,41 0,4 0,8 1,11 4,8 11,7 20,7 9,0 18,0 26,0 9,-1 11,-6 11,-15 3,0 7,0 10,0 4,0 7,0 11,0 0,8 2,13 10,14 8,0 17,0 25,0 16,0 23,1 23,-15 -1,-7 0,-5 2,-10 3,-7 5,-11 9,-16 5,-6 6,-6 12,-14 6,-8 15,-19 19,-30 21,0 20,-11 20,-29 0,-11 2,-23 -8,-28 -8,-4 -11,1 -13,-3 0,0 0,-1 -1,-2 -4,-11 -12,-23 -21,-31l-6 -5c-3,-4 -1,-16 1,-20 2,-5 7,-11 2,-18 -4,-5 -11,-5 -17,-4 -14,4 -20,9 -29,18z"/>
  <path class="fil0" d="M107 1c-16,3 -31,18 -28,38 3,17 19,32 40,29 31,-6 37,-44 15,-61 -6,-5 -16,-9 -27,-6zm1 8c-12,3 -23,15 -20,30 2,12 14,23 30,20 12,-3 23,-15 20,-30 -3,-12 -14,-23 -30,-20z"/>
 </g>
</svg>
